<svg width="200" height="200" viewBox="0 0 200 200" fill="none" xmlns="http://www.w3.org/2000/svg">
<circle cx="100" cy="100" r="98.5" fill="url(#paint0_linear_276_58)" stroke="#242424" stroke-width="3"/>
<circle cx="100" cy="100" r="50" fill="#C9C9C9"/>
<circle cx="100" cy="100" r="50" stroke="#242424" stroke-width="10"/>
<circle cx="100" cy="100" r="50" stroke="black" stroke-opacity="0.2" stroke-width="10"/>
<circle cx="100" cy="100" r="40" fill="url(#paint1_linear_276_58)"/>
<circle cx="100" cy="100" r="40" stroke="#242424" stroke-width="3"/>
<circle cx="100" cy="100" r="40" stroke="black" stroke-opacity="0.2" stroke-width="3"/>
<circle cx="100" cy="100" r="22.5" fill="#F4E9CB" stroke="#242424" stroke-width="5"/>
<circle cx="100" cy="100" r="7.5" fill="#242424" stroke="#242424" stroke-width="5"/>
<path d="M103.086 180.4C103.086 186 102.766 188.8 102.126 188.8C101.486 188.8 101.166 186 101.166 180.4C101.166 174.8 101.486 172 102.126 172C102.766 172 103.086 174.8 103.086 180.4ZM95.2617 175.336C93.2777 173.112 92.6857 172 93.4857 172C93.7577 172 94.1337 172.144 94.6137 172.432C95.0777 172.736 95.5817 173.136 96.1257 173.632C96.6537 174.144 97.1497 174.712 97.6137 175.336C98.0617 175.976 98.4137 176.648 98.6697 177.352C98.9257 178.056 99.0137 178.752 98.9337 179.44C98.8377 180.128 98.5097 180.768 97.9497 181.36C96.2377 183.12 94.9337 184 94.0377 184C93.1257 184 93.5977 183.112 95.4537 181.336C97.3097 179.56 97.2457 177.56 95.2617 175.336Z" fill="#FFFCF5"/>
<path d="M76.4114 168.833C77.1726 169.021 77.9073 169.985 78.6155 171.725C79.3392 173.469 80.4111 173.733 81.8312 172.517C83.2669 171.306 84.3575 170.792 85.1032 170.976C85.8644 171.163 85.2718 172.064 83.3252 173.677C81.3981 175.278 80.9195 177.22 81.8895 179.502C82.8789 181.773 82.9929 182.815 82.2317 182.627C81.486 182.443 80.7495 181.52 80.0222 179.858C79.2949 178.195 78.2618 177.941 76.923 179.094C75.5686 180.243 74.5186 180.726 73.7729 180.542C73.0428 180.362 73.5929 179.5 75.4232 177.958C77.2768 176.388 77.7165 174.436 76.7425 172.103C75.7605 169.735 75.6502 168.645 76.4114 168.833Z" fill="#FFFCF5"/>
<path d="M60.4332 163.628C59.6824 163.233 59.4445 162.774 59.7196 162.25C60.0021 161.712 60.5188 161.64 61.2696 162.034L64.0959 163.517L65.0929 166.317L61.5911 172.99C59.9034 176.206 59.5553 178.075 60.547 178.595C61.5529 179.123 61.9145 179.656 61.632 180.195C61.3569 180.719 60.7164 180.717 59.7106 180.189L57.373 178.962C56.8064 178.665 57.5082 176.639 59.4784 172.884L63.0249 166.126L62.4844 164.677C62.1795 164.535 61.857 164.375 61.517 164.196C61.177 164.018 60.8157 163.828 60.4332 163.628Z" fill="#FFFCF5"/>
<path d="M46.2994 152.787C45.6647 152.225 45.5436 151.722 45.9361 151.279C46.3393 150.824 46.8582 150.877 47.4929 151.44L49.882 153.556L50.1799 156.514L45.183 162.155C42.7746 164.874 41.9896 166.604 42.8279 167.347C43.6782 168.1 43.9017 168.705 43.4986 169.16C43.1061 169.603 42.4846 169.448 41.6344 168.695L39.6584 166.944C39.1794 166.519 40.3456 164.72 43.1571 161.546L48.2177 155.833L48.0398 154.297C47.7777 154.086 47.5029 153.853 47.2155 153.599C46.9281 153.344 46.6227 153.074 46.2994 152.787Z" fill="#FFFCF5"/>
<path d="M26.2177 143.864C26.1178 143.719 26.288 143.543 26.7285 143.336C27.1467 143.125 27.7531 142.891 28.5478 142.634C29.3425 142.377 30.2591 142.114 31.2977 141.844C32.314 141.57 33.3794 141.311 34.4938 141.067C35.6082 140.822 36.7074 140.598 37.7915 140.394C38.8623 140.199 39.8451 140.046 40.7397 139.934C41.6253 139.809 42.3499 139.746 42.9135 139.746C43.4812 139.723 43.815 139.784 43.915 139.929C44.2967 140.482 43.5984 140.935 41.82 141.288C40.068 141.622 38.0045 143.562 35.6297 147.107C33.2721 150.62 31.9025 152.1 31.5208 151.547C31.1391 150.994 31.9064 149.317 33.8228 146.517C35.7261 143.725 35.0354 142.725 31.7507 143.515C28.4438 144.3 26.5994 144.417 26.2177 143.864Z" fill="#FFFCF5"/>
<path d="M20.3761 127.309L22.6942 129.022C23.3627 129.026 24.6245 128.675 26.4795 127.972C28.3495 127.262 29.0378 126.257 28.5442 124.955C28.0563 123.669 28.0891 122.921 28.6427 122.711C29.2111 122.495 29.9946 123.704 30.9931 126.337C31.9916 128.97 32.2065 130.394 31.6381 130.61C31.0845 130.82 30.666 130.551 30.3823 129.803C30.1043 129.07 28.3721 129.307 25.1856 130.516C22.0141 131.719 20.3148 132.021 20.0879 131.423C19.861 130.824 20.2337 130.341 21.2061 129.972C21.6848 129.79 21.9428 129.658 21.9799 129.576C21.9964 129.484 21.7875 129.452 21.3532 129.48L18.5019 127.917C17.9233 126.391 17.9406 125.512 18.554 125.279C19.1674 125.047 19.7747 125.723 20.3761 127.309Z" fill="#FFFCF5"/>
<path d="M25.9932 104.221C26.0877 104.999 25.447 106.028 24.0711 107.307C22.6972 108.602 22.8302 109.698 24.4703 110.595C26.1123 111.508 26.9795 112.345 27.0721 113.108C27.1666 113.886 26.1146 113.651 23.9162 112.403C21.7355 111.169 19.7501 111.41 17.9599 113.126C16.1875 114.856 15.2541 115.332 15.1596 114.554C15.067 113.792 15.669 112.776 16.9654 111.506C18.2619 110.237 18.1336 109.18 16.5807 108.338C15.0259 107.479 14.2022 106.668 14.1096 105.906C14.019 105.159 15.0194 105.368 17.111 106.532C19.2363 107.709 21.2169 107.428 23.0528 105.69C24.9186 103.932 25.8987 103.443 25.9932 104.221Z" fill="#FFFCF5"/>
<path d="M22.2043 94.9275C22.2737 94.3557 22.6446 94.022 23.3171 93.9264L24.8408 92.1289L25.1966 89.1985L24.5254 87.9565L22.9529 87.7655L22.0575 88.7689C21.8947 89.3132 21.7182 89.9043 21.5279 90.542C21.3218 91.1778 21.1099 91.8612 20.8922 92.5923L18.9171 94.7217L15.7961 94.3427L14.1468 91.7974L14.6125 87.9615L16.9478 85.8517C18.1429 85.9646 18.7067 86.299 18.6392 86.8549C18.5698 87.4267 17.8714 87.7367 16.5439 87.7851L16.1302 91.192L16.7899 92.5293L18.267 92.7087L19.2629 91.4758C19.4435 90.9175 19.6368 90.3204 19.843 89.6846C20.051 89.0329 20.2639 88.3416 20.4816 87.6105L22.3266 85.7554L25.5668 86.1488L27.1085 88.5845L26.6052 92.73L24.7622 95.1656L22.708 95.9557C22.3009 95.8579 22.1329 95.5152 22.2043 94.9275Z" fill="#FFFCF5"/>
<path d="M28.633 68.9898C28.8486 68.4213 29.488 68.4499 30.5512 69.0757L31.7895 72.2405L30.4534 75.7637L28.0448 77.648L24.8778 78.0125L21.5118 76.7358L19.3435 74.399L18.7506 71.4276L20.2653 67.4331L24.4467 66.2212C26.4472 67.0827 26.9284 68.8823 25.8902 71.6201C24.8463 74.3728 24.8903 75.9039 26.0221 76.2134L28.7511 75.041L30.1722 71.2934C28.9248 70.3411 28.4117 69.5733 28.633 68.9898ZM20.538 71.9259L21.4876 74.1598C22.33 74.736 23.1484 73.9769 23.9426 71.8824C24.7368 69.788 24.6439 68.5891 23.6638 68.2858L21.5507 69.2554L20.538 71.9259Z" fill="#FFFCF5"/>
<path d="M45.377 40.5909C47.1134 39.0524 48.1779 38.5047 48.5705 38.9478C48.963 39.391 48.2911 40.3818 46.5546 41.9203C44.8182 43.4589 43.7537 44.0066 43.3611 43.5634C42.9686 43.1203 43.6405 42.1295 45.377 40.5909Z" fill="#FFFCF5"/>
<path d="M75.8642 27.3222C76.4235 27.1844 76.867 27.4129 77.1949 28.0077L79.4158 28.795L82.282 28.0885L83.2053 27.0205L82.8262 25.4825L81.5705 25.001C81.0038 25.0418 80.3886 25.0864 79.7249 25.1346C79.0573 25.1674 78.3432 25.2116 77.5824 25.2673L74.891 24.1757L74.1387 21.1231L75.9338 18.6783L79.6855 17.7535L82.4864 19.1889C82.8046 20.3464 82.6918 20.9921 82.1481 21.1262C81.5888 21.264 81.0513 20.7209 80.5354 19.4968L77.2031 20.3182L76.1866 21.4092L76.5427 22.854L78.0486 23.3479C78.6347 23.3188 79.2615 23.2879 79.9291 23.2551C80.6122 23.2186 81.3341 23.1725 82.0949 23.1168L84.4837 24.184L85.2647 27.3532L83.5341 29.6584L79.4794 30.6579L76.5486 29.7984L75.0814 28.1579C75.0285 27.7425 75.2894 27.4639 75.8642 27.3222Z" fill="#FFFCF5"/>
<path d="M99.4903 12.352C99.4903 13.136 99.0743 13.528 98.2423 13.528C97.4103 13.528 96.9943 13.136 96.9943 12.352C96.9943 11.584 97.4103 11.2 98.2423 11.2C99.0743 11.2 99.4903 11.584 99.4903 12.352ZM100.882 26.2C102.002 26.2 102.562 26.496 102.562 27.088C102.562 27.696 101.042 28 98.0023 28C94.9623 28 93.4423 27.696 93.4423 27.088C93.4423 26.496 94.0823 26.2 95.3623 26.2C96.6423 26.2 97.2823 24.8 97.2823 22C97.2823 19.2 96.6423 17.8 95.3623 17.8C94.0823 17.8 93.4423 17.496 93.4423 16.888C93.4423 16.296 94.4023 16 96.3223 16C98.2423 16 99.2023 17.696 99.2023 21.088C99.2023 24.496 99.7623 26.2 100.882 26.2Z" fill="#FFFCF5"/>
<path d="M119.251 29.2297C120.074 29.4327 120.415 29.8216 120.273 30.3964C120.128 30.9867 119.643 31.1804 118.82 30.9774L115.721 30.2135L114.083 27.7333L115.886 20.4162C116.755 16.8898 116.646 14.9925 115.559 14.7244C114.456 14.4525 113.977 14.0214 114.122 13.4311C114.264 12.8563 114.886 12.7048 115.989 12.9767L118.553 13.6086C119.174 13.7618 118.977 15.8968 117.963 20.0136L116.136 27.4239L117.008 28.7016C117.338 28.7665 117.69 28.8449 118.062 28.9368C118.435 29.0287 118.831 29.1263 119.251 29.2297Z" fill="#FFFCF5"/>
<path d="M137.143 34.8684C137.681 35.1509 137.576 35.7823 136.827 36.7623L133.536 37.61L130.2 35.8588L128.619 33.2404L128.639 30.0523L130.312 26.8646L132.893 24.9937L135.914 24.7634L139.697 26.7489L140.396 31.0462C139.3 32.9283 137.455 33.189 134.863 31.8282C132.256 30.4599 130.731 30.3189 130.287 31.4052L131.122 34.2559L134.671 36.1187C135.767 34.9951 136.591 34.5783 137.143 34.8684ZM135.204 26.4779L132.872 27.1512C132.199 27.918 132.854 28.822 134.837 29.8631C136.82 30.9041 138.022 30.9564 138.441 30.02L137.733 27.8052L135.204 26.4779Z" fill="#FFFCF5"/>
<path d="M155.42 38.3318L156.224 40.1024L155.867 42.3513L152.191 46.5013C150.43 48.4894 149.31 49.2713 148.831 48.8469C148.352 48.4224 148.94 47.276 150.595 45.4077L154.955 40.4852L151.74 37.6363L149.096 38.0512C148.355 38.5494 147.221 39.6609 145.693 41.3855C144.145 43.1341 143.131 43.7962 142.652 43.3718C142.172 42.9474 143.259 41.2381 145.911 38.2439C148.564 35.2497 150.129 33.9648 150.608 34.3892C151.088 34.8136 150.934 35.469 150.149 36.3553C149.354 37.2535 149.371 37.4508 150.202 36.9472L153.426 36.5651L155.42 38.3318Z" fill="#FFFCF5"/>
<path d="M166.993 55.2627C166.093 53.9591 164.807 53.8844 163.135 55.0388L159.56 57.5067L159.365 59.0411C159.569 59.3085 159.78 59.6003 159.998 59.9163C160.216 60.2323 160.448 60.5681 160.693 60.9237C161.175 61.6216 161.172 62.1387 160.685 62.475C160.185 62.8204 159.694 62.6442 159.212 61.9463L157.399 59.3192L157.817 56.3764L162.044 53.4586C163.716 52.3042 164.266 51.3122 163.694 50.4826C163.112 49.6399 163.071 49.0458 163.572 48.7004C164.059 48.3641 164.593 48.6173 165.175 49.4601C165.748 50.2896 166.462 50.409 167.318 49.8182C168.173 49.2274 168.783 49.1953 169.147 49.722C169.51 50.2488 169.264 50.8076 168.408 51.3984C167.552 51.9892 167.574 52.9365 168.474 54.2401C169.365 55.5306 169.566 56.344 169.079 56.6803C168.579 57.0257 167.883 56.5532 166.993 55.2627Z" fill="#FFFCF5"/>
<path d="M186.641 93.3965C186.718 94.0319 183.977 94.6871 178.418 95.3622C172.859 96.0372 170.044 96.0889 169.975 95.5171C169.906 94.9453 169.956 94.6329 170.127 94.5799L171.73 94.2402L172.969 94.0898C173.223 94.0589 173.259 94.0223 173.076 93.98C172.91 93.9358 172.533 93.8848 171.946 93.8272L169.332 92.2105L168.973 89.2562L170.294 86.9925L172.964 85.4836L176.537 85.0497L179.517 85.8966L181.379 87.8947L181.909 92.2547C180.733 92.6554 180.191 92.9065 180.284 93.0081C180.394 93.1236 181.125 93.0993 182.475 92.9354C185.175 92.6075 186.564 92.7612 186.641 93.3965ZM171.227 92.4881L173.898 93.9769L177.781 93.5053L179.923 91.432L179.527 88.168L177.007 86.9267L173.028 87.4099L170.845 89.3431L171.227 92.4881Z" fill="#FFFCF5"/>
<path d="M179.422 111.897L178.166 109.302C177.575 108.989 176.295 108.712 174.326 108.473C172.34 108.232 171.264 108.802 171.096 110.184C170.93 111.55 170.553 112.198 169.966 112.126C169.362 112.053 169.23 110.619 169.569 107.823C169.909 105.028 170.38 103.667 170.984 103.74C171.572 103.811 171.817 104.244 171.721 105.038C171.626 105.816 173.271 106.411 176.654 106.822C180.021 107.231 181.666 107.753 181.589 108.388C181.512 109.023 180.957 109.278 179.925 109.153C179.416 109.091 179.127 109.088 179.055 109.144C178.998 109.218 179.168 109.343 179.566 109.52L181.364 112.229C181.168 113.849 180.744 114.62 180.092 114.541C179.441 114.462 179.218 113.58 179.422 111.897Z" fill="#FFFCF5"/>
<path d="M179.415 132.474C178.682 132.196 178.463 131.668 178.758 130.89C179.053 130.112 179.567 129.862 180.3 130.14C181.018 130.412 181.23 130.938 180.935 131.716C180.64 132.494 180.133 132.746 179.415 132.474ZM165.974 128.864C165.576 129.912 165.101 130.33 164.548 130.12C163.979 129.905 164.234 128.376 165.312 125.533C166.39 122.691 167.213 121.377 167.781 121.593C168.335 121.803 168.385 122.506 167.931 123.703C167.477 124.9 168.559 125.995 171.177 126.988C173.795 127.981 175.331 127.879 175.785 126.682C176.239 125.485 176.75 124.995 177.318 125.21C177.872 125.42 177.808 126.423 177.127 128.218C176.447 130.013 174.52 130.309 171.349 129.107C168.162 127.898 166.371 127.817 165.974 128.864Z" fill="#FFFCF5"/>
<path d="M164.477 151.551C164.368 151.709 164.145 151.652 163.807 151.381C163.47 151.109 163.064 150.683 162.59 150.103C162.12 149.545 161.62 148.889 161.09 148.134C160.565 147.402 160.052 146.64 159.55 145.846C159.052 145.074 158.611 144.333 158.228 143.621C157.848 142.931 157.567 142.339 157.384 141.843C157.192 141.36 157.146 141.047 157.246 140.902C157.346 140.757 157.66 140.682 158.188 140.677C158.708 140.686 159.361 140.739 160.15 140.836C160.942 140.955 161.792 141.104 162.699 141.283C163.61 141.484 164.505 141.694 165.385 141.912C166.268 142.153 167.054 142.394 167.743 142.636C168.444 142.887 168.982 143.122 169.356 143.341C169.73 143.56 169.862 143.749 169.753 143.907C169.362 144.473 167.502 144.337 164.174 143.497C160.855 142.645 160.173 143.632 162.129 146.46C164.094 149.275 164.877 150.972 164.477 151.551Z" fill="#FFFCF5"/>
<path d="M145.013 159.699C144.557 160.102 144.005 159.78 143.354 158.731L143.728 155.353L146.549 152.855L149.557 152.306L152.531 153.455L154.918 156.149L155.752 159.226L154.896 162.133L151.698 164.966L147.433 164.096C146.062 162.403 146.472 160.586 148.663 158.644C150.867 156.692 151.54 155.316 150.681 154.516L147.72 154.286L144.72 156.944C145.382 158.367 145.48 159.285 145.013 159.699ZM153.545 160.861L153.742 158.442C153.264 157.54 152.186 157.832 150.51 159.317C148.833 160.803 148.358 161.907 149.085 162.632L151.407 162.755L153.545 160.861Z" fill="#FFFCF5"/>
<path d="M136.884 165.268C136.374 165.535 135.888 165.42 135.428 164.921L133.083 164.688L130.469 166.06L129.828 167.318L130.564 168.72L131.899 168.887C132.439 168.712 133.026 168.521 133.659 168.316C134.299 168.124 134.982 167.91 135.707 167.674L138.581 168.09L140.042 170.874L138.885 173.677L135.463 175.473L132.4 174.75C131.814 173.702 131.769 173.048 132.265 172.788C132.775 172.52 133.427 172.919 134.221 173.984L137.26 172.389L137.986 171.086L137.294 169.769L135.714 169.649C135.152 169.818 134.55 169.998 133.91 170.19C133.256 170.388 132.566 170.606 131.84 170.842L129.266 170.378L127.749 167.487L128.878 164.835L132.575 162.894L135.627 163.027L137.444 164.269C137.594 164.66 137.408 164.993 136.884 165.268Z" fill="#FFFCF5"/>
<defs>
<linearGradient id="paint0_linear_276_58" x1="314" y1="-86.5" x2="-112" y2="221.5" gradientUnits="userSpaceOnUse">
<stop stop-color="#F1A4B6"/>
<stop offset="1" stop-color="#383838"/>
</linearGradient>
<linearGradient id="paint1_linear_276_58" x1="100" y1="60" x2="100" y2="140" gradientUnits="userSpaceOnUse">
<stop stop-color="#1E1E1E"/>
<stop offset="1" stop-color="#6A0B44" stop-opacity="0"/>
</linearGradient>
</defs>
</svg>
