  <svg viewBox="0 0 250 250" fill="none" xmlns="http://www.w3.org/2000/svg" xmlnsAnim="http://www.w3.org/2000/anim" anim="" animTransformOrigin="50% 50%" animDuration="0.01" animEase="none">
    <g id="02dec831">
      <g id="77ebf47d">
        <rect id="b2a67512" x="5" y="5" width="240" height="240" rx="15" fill="#6D9481" stroke="#3D4A3F" stroke-width="10"></rect>
        <g id="a57d05fe" anim="" animRotation="0|360" animDelay="0.005" animDuration="1">
          <circle id="eb22481f" cx="120" cy="120" r="98.5" fill="url(#f9f120d7)" stroke="#242424" stroke-width="3"></circle>
          <g id="a083e8fe">
            <circle cx="120" cy="120" r="50" fill="#C9C9C9"></circle>
            <circle cx="120" cy="120" r="50" stroke="#242424" stroke-width="10"></circle>
            <circle cx="120" cy="120" r="50" stroke="black" stroke-opacity="0.2" stroke-width="10"></circle>
          </g>
          <g id="5c8c6380">
            <circle cx="120" cy="120" r="40" fill="url(#46039ccf)"></circle>
            <circle cx="120" cy="120" r="40" stroke="#242424" stroke-width="3"></circle>
            <circle cx="120" cy="120" r="40" stroke="black" stroke-opacity="0.2" stroke-width="3"></circle>
          </g>
          <circle id="3639c42e" cx="120" cy="120" r="22.5" fill="#F4E9CB" stroke="#242424" stroke-width="5"></circle>
          <circle id="04b3b70a" cx="120" cy="120" r="7.5" fill="#242424" stroke="#242424" stroke-width="5"></circle>
          <g id="d978c33f">
            <path id="384866af" d="M123.086 200.4C123.086 206 122.766 208.8 122.126 208.8C121.486 208.8 121.166 206 121.166 200.4C121.166 194.8 121.486 192 122.126 192C122.766 192 123.086 194.8 123.086 200.4ZM115.262 195.336C113.278 193.112 112.686 192 113.486 192C113.758 192 114.134 192.144 114.614 192.432C115.078 192.736 115.582 193.136 116.126 193.632C116.654 194.144 117.15 194.712 117.614 195.336C118.062 195.976 118.414 196.648 118.67 197.352C118.926 198.056 119.014 198.752 118.934 199.44C118.838 200.128 118.51 200.768 117.95 201.36C116.238 203.12 114.934 204 114.038 204C113.126 204 113.598 203.112 115.454 201.336C117.31 199.56 117.246 197.56 115.262 195.336Z" fill="#FFFCF5"></path>
            <path id="0f30cfdc" d="M96.4114 188.833C97.1726 189.021 97.9073 189.985 98.6155 191.725C99.3392 193.469 100.411 193.733 101.831 192.517C103.267 191.306 104.358 190.792 105.103 190.976C105.864 191.163 105.272 192.064 103.325 193.677C101.398 195.278 100.919 197.22 101.889 199.502C102.879 201.773 102.993 202.815 102.232 202.627C101.486 202.443 100.75 201.52 100.022 199.858C99.2949 198.195 98.2618 197.941 96.923 199.094C95.5686 200.243 94.5186 200.726 93.7729 200.542C93.0428 200.362 93.5929 199.5 95.4232 197.958C97.2768 196.388 97.7165 194.436 96.7425 192.103C95.7605 189.735 95.6502 188.645 96.4114 188.833Z" fill="#FFFCF5"></path>
            <path id="f9d4d431" d="M80.4332 183.628C79.6824 183.233 79.4445 182.774 79.7196 182.25C80.0021 181.712 80.5188 181.64 81.2696 182.034L84.0959 183.517L85.0929 186.317L81.5911 192.99C79.9034 196.206 79.5553 198.075 80.547 198.595C81.5529 199.123 81.9145 199.656 81.632 200.195C81.3569 200.719 80.7164 200.717 79.7106 200.189L77.373 198.962C76.8064 198.665 77.5082 196.639 79.4784 192.884L83.0249 186.126L82.4844 184.677C82.1795 184.535 81.857 184.375 81.517 184.196C81.177 184.018 80.8157 183.828 80.4332 183.628Z" fill="#FFFCF5"></path>
            <path id="9dc40c9c" d="M66.2994 172.787C65.6647 172.225 65.5436 171.722 65.9361 171.279C66.3393 170.824 66.8582 170.877 67.4929 171.44L69.882 173.556L70.1799 176.514L65.183 182.155C62.7746 184.874 61.9896 186.604 62.8279 187.347C63.6782 188.1 63.9017 188.705 63.4986 189.16C63.1061 189.603 62.4846 189.448 61.6344 188.695L59.6584 186.944C59.1794 186.519 60.3456 184.72 63.1571 181.546L68.2177 175.833L68.0398 174.297C67.7777 174.086 67.5029 173.853 67.2155 173.599C66.9281 173.344 66.6227 173.074 66.2994 172.787Z" fill="#FFFCF5"></path>
            <path id="fdea6147" d="M46.2177 163.864C46.1178 163.719 46.288 163.543 46.7285 163.336C47.1467 163.125 47.7531 162.891 48.5478 162.634C49.3425 162.377 50.2591 162.114 51.2977 161.844C52.314 161.57 53.3794 161.311 54.4938 161.067C55.6082 160.822 56.7074 160.598 57.7915 160.394C58.8623 160.199 59.8451 160.046 60.7397 159.934C61.6253 159.809 62.3499 159.746 62.9135 159.746C63.4812 159.723 63.815 159.784 63.915 159.929C64.2967 160.482 63.5984 160.935 61.82 161.288C60.068 161.622 58.0045 163.562 55.6297 167.107C53.2721 170.62 51.9025 172.1 51.5208 171.547C51.1391 170.994 51.9064 169.317 53.8228 166.517C55.7261 163.725 55.0354 162.725 51.7507 163.515C48.4438 164.3 46.5994 164.417 46.2177 163.864Z" fill="#FFFCF5"></path>
            <path id="386ee3f1" d="M40.3761 147.309L42.6942 149.022C43.3627 149.026 44.6245 148.675 46.4795 147.972C48.3495 147.262 49.0378 146.257 48.5442 144.955C48.0563 143.669 48.0891 142.921 48.6427 142.711C49.2111 142.495 49.9946 143.704 50.9931 146.337C51.9916 148.97 52.2065 150.394 51.6381 150.61C51.0845 150.82 50.666 150.551 50.3823 149.803C50.1043 149.07 48.3721 149.307 45.1856 150.516C42.0141 151.719 40.3148 152.021 40.0879 151.423C39.861 150.824 40.2337 150.341 41.2061 149.972C41.6848 149.79 41.9428 149.658 41.9799 149.576C41.9964 149.484 41.7875 149.452 41.3532 149.48L38.5019 147.917C37.9233 146.391 37.9406 145.512 38.554 145.279C39.1674 145.047 39.7747 145.723 40.3761 147.309Z" fill="#FFFCF5"></path>
            <path id="7926b00b" d="M45.9932 124.221C46.0877 124.999 45.447 126.028 44.0711 127.307C42.6972 128.602 42.8302 129.698 44.4703 130.595C46.1123 131.508 46.9795 132.345 47.0721 133.108C47.1666 133.886 46.1146 133.651 43.9162 132.403C41.7355 131.169 39.7501 131.41 37.9599 133.126C36.1875 134.856 35.2541 135.332 35.1596 134.554C35.067 133.792 35.669 132.776 36.9654 131.506C38.2619 130.237 38.1336 129.18 36.5807 128.338C35.0259 127.479 34.2022 126.668 34.1096 125.906C34.019 125.159 35.0194 125.368 37.111 126.532C39.2363 127.709 41.2169 127.428 43.0528 125.69C44.9186 123.932 45.8987 123.443 45.9932 124.221Z" fill="#FFFCF5"></path>
            <path id="4dd5ced5" d="M42.2043 114.928C42.2737 114.356 42.6446 114.022 43.3171 113.926L44.8408 112.129L45.1966 109.198L44.5254 107.956L42.9529 107.766L42.0575 108.769C41.8947 109.313 41.7182 109.904 41.5279 110.542C41.3218 111.178 41.1099 111.861 40.8922 112.592L38.9171 114.722L35.7961 114.343L34.1468 111.797L34.6125 107.962L36.9478 105.852C38.1429 105.965 38.7067 106.299 38.6392 106.855C38.5698 107.427 37.8714 107.737 36.5439 107.785L36.1302 111.192L36.7899 112.529L38.267 112.709L39.2629 111.476C39.4435 110.917 39.6368 110.32 39.843 109.685C40.051 109.033 40.2639 108.342 40.4816 107.61L42.3266 105.755L45.5668 106.149L47.1085 108.584L46.6052 112.73L44.7622 115.166L42.708 115.956C42.3009 115.858 42.1329 115.515 42.2043 114.928Z" fill="#FFFCF5"></path>
            <path id="8011331b" d="M48.633 88.9898C48.8486 88.4213 49.488 88.4499 50.5512 89.0757L51.7895 92.2405L50.4534 95.7637L48.0448 97.648L44.8778 98.0125L41.5118 96.7358L39.3435 94.399L38.7506 91.4276L40.2653 87.4331L44.4467 86.2212C46.4472 87.0827 46.9284 88.8823 45.8902 91.6201C44.8463 94.3728 44.8903 95.9039 46.0221 96.2134L48.7511 95.041L50.1722 91.2934C48.9248 90.3411 48.4117 89.5733 48.633 88.9898ZM40.538 91.9259L41.4876 94.1598C42.33 94.736 43.1484 93.9769 43.9426 91.8824C44.7368 89.788 44.6439 88.5891 43.6638 88.2858L41.5507 89.2554L40.538 91.9259Z" fill="#FFFCF5"></path>
            <path id="9b105831" d="M65.377 60.5909C67.1134 59.0524 68.1779 58.5047 68.5705 58.9478C68.963 59.391 68.2911 60.3818 66.5546 61.9203C64.8182 63.4589 63.7537 64.0066 63.3611 63.5634C62.9686 63.1203 63.6405 62.1295 65.377 60.5909Z" fill="#FFFCF5"></path>
            <path id="6c60191e" d="M95.8642 47.3222C96.4235 47.1844 96.867 47.4129 97.1949 48.0077L99.4158 48.795L102.282 48.0885L103.205 47.0205L102.826 45.4825L101.571 45.001C101.004 45.0418 100.389 45.0864 99.7249 45.1346C99.0573 45.1674 98.3432 45.2116 97.5824 45.2673L94.891 44.1757L94.1387 41.1231L95.9338 38.6783L99.6855 37.7535L102.486 39.1889C102.805 40.3464 102.692 40.9921 102.148 41.1262C101.589 41.264 101.051 40.7209 100.535 39.4968L97.2031 40.3182L96.1866 41.4092L96.5427 42.854L98.0486 43.3479C98.6347 43.3188 99.2615 43.2879 99.9291 43.2551C100.612 43.2186 101.334 43.1725 102.095 43.1168L104.484 44.184L105.265 47.3532L103.534 49.6584L99.4794 50.6579L96.5486 49.7984L95.0814 48.1579C95.0285 47.7425 95.2894 47.4639 95.8642 47.3222Z" fill="#FFFCF5"></path>
            <path id="95db1b8f" d="M119.49 32.352C119.49 33.136 119.074 33.528 118.242 33.528C117.41 33.528 116.994 33.136 116.994 32.352C116.994 31.584 117.41 31.2 118.242 31.2C119.074 31.2 119.49 31.584 119.49 32.352ZM120.882 46.2C122.002 46.2 122.562 46.496 122.562 47.088C122.562 47.696 121.042 48 118.002 48C114.962 48 113.442 47.696 113.442 47.088C113.442 46.496 114.082 46.2 115.362 46.2C116.642 46.2 117.282 44.8 117.282 42C117.282 39.2 116.642 37.8 115.362 37.8C114.082 37.8 113.442 37.496 113.442 36.888C113.442 36.296 114.402 36 116.322 36C118.242 36 119.202 37.696 119.202 41.088C119.202 44.496 119.762 46.2 120.882 46.2Z" fill="#FFFCF5"></path>
            <path id="57a5a526" d="M139.251 49.2297C140.074 49.4327 140.415 49.8216 140.273 50.3964C140.128 50.9867 139.643 51.1804 138.82 50.9774L135.721 50.2135L134.083 47.7333L135.886 40.4162C136.755 36.8898 136.646 34.9925 135.559 34.7244C134.456 34.4525 133.977 34.0214 134.122 33.4311C134.264 32.8563 134.886 32.7048 135.989 32.9767L138.553 33.6086C139.174 33.7618 138.977 35.8968 137.963 40.0136L136.136 47.4239L137.008 48.7016C137.338 48.7665 137.69 48.8449 138.062 48.9368C138.435 49.0287 138.831 49.1263 139.251 49.2297Z" fill="#FFFCF5"></path>
            <path id="99b1a23c" d="M157.143 54.8684C157.681 55.1509 157.576 55.7823 156.827 56.7623L153.536 57.61L150.2 55.8588L148.619 53.2404L148.639 50.0523L150.312 46.8646L152.893 44.9937L155.914 44.7634L159.697 46.7489L160.396 51.0462C159.3 52.9283 157.455 53.189 154.863 51.8282C152.256 50.4599 150.731 50.3189 150.287 51.4052L151.122 54.2559L154.671 56.1187C155.767 54.9951 156.591 54.5783 157.143 54.8684ZM155.204 46.4779L152.872 47.1512C152.199 47.918 152.854 48.822 154.837 49.8631C156.82 50.9041 158.022 50.9564 158.441 50.02L157.733 47.8052L155.204 46.4779Z" fill="#FFFCF5"></path>
            <path id="b14bc801" d="M175.42 58.3318L176.224 60.1024L175.867 62.3513L172.191 66.5013C170.43 68.4894 169.31 69.2713 168.831 68.8469C168.352 68.4224 168.94 67.276 170.595 65.4077L174.955 60.4852L171.74 57.6363L169.096 58.0512C168.355 58.5494 167.221 59.6609 165.693 61.3855C164.145 63.1341 163.131 63.7962 162.652 63.3718C162.172 62.9474 163.259 61.2381 165.911 58.2439C168.564 55.2497 170.129 53.9648 170.608 54.3892C171.088 54.8136 170.934 55.469 170.149 56.3553C169.354 57.2535 169.371 57.4508 170.202 56.9472L173.426 56.5651L175.42 58.3318Z" fill="#FFFCF5"></path>
            <path id="728e934a" d="M186.993 75.2627C186.093 73.9591 184.807 73.8844 183.135 75.0388L179.56 77.5067L179.365 79.0411C179.569 79.3085 179.78 79.6003 179.998 79.9163C180.216 80.2323 180.448 80.5681 180.693 80.9237C181.175 81.6216 181.172 82.1387 180.685 82.475C180.185 82.8204 179.694 82.6442 179.212 81.9463L177.399 79.3192L177.817 76.3764L182.044 73.4586C183.716 72.3042 184.266 71.3122 183.694 70.4826C183.112 69.6399 183.071 69.0458 183.572 68.7004C184.059 68.3641 184.593 68.6173 185.175 69.4601C185.748 70.2896 186.462 70.409 187.318 69.8182C188.173 69.2274 188.783 69.1953 189.147 69.722C189.51 70.2488 189.264 70.8076 188.408 71.3984C187.552 71.9892 187.574 72.9365 188.474 74.2401C189.365 75.5306 189.566 76.344 189.079 76.6803C188.579 77.0257 187.883 76.5532 186.993 75.2627Z" fill="#FFFCF5"></path>
            <path id="848ec1af" d="M206.641 113.397C206.718 114.032 203.977 114.687 198.418 115.362C192.859 116.037 190.044 116.089 189.975 115.517C189.906 114.945 189.956 114.633 190.127 114.58L191.73 114.24L192.969 114.09C193.223 114.059 193.259 114.022 193.076 113.98C192.91 113.936 192.533 113.885 191.946 113.827L189.332 112.211L188.973 109.256L190.294 106.992L192.964 105.484L196.537 105.05L199.517 105.897L201.379 107.895L201.909 112.255C200.733 112.655 200.191 112.907 200.284 113.008C200.394 113.124 201.125 113.099 202.475 112.935C205.175 112.607 206.564 112.761 206.641 113.397ZM191.227 112.488L193.898 113.977L197.781 113.505L199.923 111.432L199.527 108.168L197.007 106.927L193.028 107.41L190.845 109.343L191.227 112.488Z" fill="#FFFCF5"></path>
            <path id="a35d25a6" d="M199.422 131.897L198.166 129.302C197.575 128.989 196.295 128.712 194.326 128.473C192.34 128.232 191.264 128.802 191.096 130.184C190.93 131.55 190.553 132.198 189.966 132.126C189.362 132.053 189.23 130.619 189.569 127.823C189.909 125.028 190.38 123.667 190.984 123.74C191.572 123.811 191.817 124.244 191.721 125.038C191.626 125.816 193.271 126.411 196.654 126.822C200.021 127.231 201.666 127.753 201.589 128.388C201.512 129.023 200.957 129.278 199.925 129.153C199.416 129.091 199.127 129.088 199.055 129.144C198.998 129.218 199.168 129.343 199.566 129.52L201.364 132.229C201.168 133.849 200.744 134.62 200.092 134.541C199.441 134.462 199.218 133.58 199.422 131.897Z" fill="#FFFCF5"></path>
            <path id="d4fd9b43" d="M199.415 152.474C198.682 152.196 198.463 151.668 198.758 150.89C199.053 150.112 199.567 149.862 200.3 150.14C201.018 150.412 201.23 150.938 200.935 151.716C200.64 152.494 200.133 152.746 199.415 152.474ZM185.974 148.864C185.576 149.912 185.101 150.33 184.548 150.12C183.979 149.905 184.234 148.376 185.312 145.533C186.39 142.691 187.213 141.377 187.781 141.593C188.335 141.803 188.385 142.506 187.931 143.703C187.477 144.9 188.559 145.995 191.177 146.988C193.795 147.981 195.331 147.879 195.785 146.682C196.239 145.485 196.75 144.995 197.318 145.21C197.872 145.42 197.808 146.423 197.127 148.218C196.447 150.013 194.52 150.309 191.349 149.107C188.162 147.898 186.371 147.817 185.974 148.864Z" fill="#FFFCF5"></path>
            <path id="5fc45d5c" d="M184.477 171.551C184.368 171.709 184.145 171.652 183.807 171.381C183.47 171.109 183.064 170.683 182.59 170.103C182.12 169.545 181.62 168.889 181.09 168.134C180.565 167.402 180.052 166.64 179.55 165.846C179.052 165.074 178.611 164.333 178.228 163.621C177.848 162.931 177.567 162.339 177.384 161.843C177.192 161.36 177.146 161.047 177.246 160.902C177.346 160.757 177.66 160.682 178.188 160.677C178.708 160.686 179.361 160.739 180.15 160.836C180.942 160.955 181.792 161.104 182.699 161.283C183.61 161.484 184.505 161.694 185.385 161.912C186.268 162.153 187.054 162.394 187.743 162.636C188.444 162.887 188.982 163.122 189.356 163.341C189.73 163.56 189.862 163.749 189.753 163.907C189.362 164.473 187.502 164.337 184.174 163.497C180.855 162.645 180.173 163.632 182.129 166.46C184.094 169.275 184.877 170.972 184.477 171.551Z" fill="#FFFCF5"></path>
            <path id="154c1e4a" d="M165.013 179.699C164.558 180.102 164.005 179.78 163.354 178.731L163.729 175.353L166.549 172.855L169.557 172.306L172.531 173.455L174.918 176.149L175.752 179.226L174.896 182.133L171.698 184.966L167.433 184.096C166.062 182.403 166.472 180.586 168.664 178.644C170.867 176.692 171.54 175.316 170.681 174.516L167.72 174.286L164.72 176.944C165.382 178.367 165.48 179.285 165.013 179.699ZM173.545 180.861L173.742 178.442C173.264 177.54 172.187 177.832 170.51 179.317C168.833 180.803 168.359 181.907 169.086 182.632L171.407 182.755L173.545 180.861Z" fill="#FFFCF5"></path>
            <path id="3fd9a822" d="M156.884 185.268C156.374 185.535 155.888 185.42 155.428 184.921L153.083 184.688L150.469 186.06L149.828 187.318L150.564 188.72L151.899 188.887C152.439 188.712 153.026 188.521 153.659 188.316C154.299 188.124 154.982 187.91 155.707 187.674L158.581 188.09L160.042 190.874L158.885 193.677L155.463 195.473L152.4 194.75C151.814 193.702 151.769 193.048 152.265 192.788C152.775 192.52 153.427 192.919 154.221 193.984L157.26 192.389L157.986 191.086L157.294 189.769L155.714 189.649C155.152 189.818 154.55 189.998 153.91 190.19C153.256 190.388 152.566 190.606 151.84 190.842L149.266 190.378L147.749 187.487L148.878 184.835L152.575 182.894L155.627 183.027L157.444 184.269C157.594 184.66 157.408 184.993 156.884 185.268Z" fill="#FFFCF5"></path>
          </g>
        </g>
        <rect id="be88b0bd" x="172.707" y="164.95" width="6" height="69.7107" rx="3" transform="rotate(-45 172.707 164.95)" fill="#FFFCF5" stroke="black"></rect>
        <rect id="6c11d517" x="214.5" y="200.5" width="12" height="28" rx="6" fill="#FFFCF5" stroke="black"></rect>
      </g>
    </g>
    <defs>
      <linearGradient id="f9f120d7" x1="334" y1="-66.5" x2="-92" y2="241.5" gradientUnits="userSpaceOnUse">
        <stop stop-color="#F1A4B6"></stop>
        <stop offset="1" stop-color="#383838"></stop>
      </linearGradient>
      <linearGradient id="46039ccf" x1="120" y1="80" x2="120" y2="160" gradientUnits="userSpaceOnUse">
        <stop stop-color="#1E1E1E"></stop>
        <stop offset="1" stop-color="#6A0B44" stop-opacity="0"></stop>
      </linearGradient>
    </defs>
  </svg>
